<?xml version="1.0" encoding="utf-8"?>
<svg id="master-artboard" viewBox="0 0 267.9552001953125 213.3661346435547" version="1.1" xmlns="http://www.w3.org/2000/svg" x="0px" y="0px" style="enable-background:new 0 0 1400 980;" width="267.9552001953125px" height="213.3661346435547px"><rect id="ee-background" x="0" y="0" width="267.9552001953125" height="213.3661346435547" style="fill: white; fill-opacity: 0; pointer-events: none;"/><defs><style id="ee-google-fonts">@import url(https://fonts.googleapis.com/css?family=Emblema+One:400);</style></defs>


<path d="M 10.479999542236328 -4.269999980926514 C 10.273333549499512 -5.296666622161865 10.029999732971191 -6.15333366394043 9.75 -6.840000152587891 C 9.476666450500488 -7.520000457763672 9.079999923706055 -8.15666675567627 8.5600004196167 -8.75 C 8.566666603088379 -8.850000381469727 8.65999984741211 -8.966666221618652 8.84000015258789 -9.100000381469727 C 9.020000457763672 -9.233333587646484 9.170000076293945 -9.300000190734863 9.289999961853027 -9.300000190734863 C 10.25 -9.193333625793457 11.146666526794434 -8.993332862854004 11.979999542236328 -8.699999809265137 C 11.966666221618652 -8.380000114440918 11.896666526794434 -7.783333778381348 11.770000457763672 -6.909999847412109 C 11.643333435058594 -6.0366668701171875 11.520000457763672 -5.340000152587891 11.399999618530273 -4.820000171661377 C 11.373332977294922 -4.733333110809326 11.24666690826416 -4.619999885559082 11.020000457763672 -4.480000019073486 C 10.793333053588867 -4.340000152587891 10.613333702087402 -4.269999980926514 10.479999542236328 -4.269999980926514 M 11.260000228881836 -2.190000057220459 C 11.15333366394043 -1.0433332920074463 10.976666450500488 0.10000002384185791 10.729999542236328 1.2400000095367432 C 10.423333168029785 1.5199999809265137 9.916666984558105 1.743333339691162 9.210000038146973 1.909999966621399 C 8.49666690826416 2.0833332538604736 7.683333396911621 2.1700000762939453 6.769999980926514 2.1700000762939453 C 7.576666831970215 1.590000033378601 8.220000267028809 1.0133333206176758 8.699999809265137 0.440000057220459 C 9.186666488647461 -0.1400001049041748 9.680000305175781 -0.8599998950958252 10.180000305175781 -1.7200000286102295 C 10.300000190734863 -1.8399999141693115 10.473333358764648 -1.9500000476837158 10.699999809265137 -2.0500001907348633 C 10.933333396911621 -2.1433334350585938 11.119999885559082 -2.190000057220459 11.260000228881836 -2.190000057220459 M 6.260000228881836 1.600000023841858 C 6.260000228881836 1.68666672706604 6.170000076293945 1.8033332824707031 5.989999771118164 1.9500000476837158 C 5.816666603088379 2.0966665744781494 5.663333415985107 2.1700000762939453 5.53000020980835 2.1700000762939453 C 4.336666584014893 1.9500000476837158 3.3266665935516357 1.4066667556762695 2.5 0.5399999618530273 C 2.0933332443237305 0.11333334445953369 1.7733333110809326 -0.3966667652130127 1.5399999618530273 -0.9900000095367432 C 1.306666612625122 -1.5833332538604736 1.190000057220459 -2.2166666984558105 1.190000057220459 -2.8899998664855957 C 1.190000057220459 -3.563333511352539 1.2733333110809326 -4.2133331298828125 1.440000057220459 -4.840000152587891 C 1.6066666841506958 -5.473333358764648 1.8666666746139526 -6.073333740234375 2.2200000286102295 -6.640000343322754 C 2.5799999237060547 -7.206666946411133 3.013333320617676 -7.703332901000977 3.5199999809265137 -8.130000114440918 C 4.613333225250244 -9.050000190734863 6.019999980926514 -9.510000228881836 7.739999771118164 -9.510000228881836 C 7.87333345413208 -9.510000228881836 7.980000019073486 -9.506667137145996 8.0600004196167 -9.5 C 7.253333568572998 -8.806666374206543 6.619999885559082 -7.803333282470703 6.159999847412109 -6.489999771118164 C 5.706666469573975 -5.176666736602783 5.480000019073486 -3.756666660308838 5.480000019073486 -2.2300000190734863 C 5.480000019073486 -0.7033333778381348 5.739999771118164 0.5733333826065063 6.260000228881836 1.600000023841858 ZM 16.04020118713379 2 C 15.433534622192383 -1.693333387374878 14.690200805664062 -5.28000020980835 13.810200691223145 -8.760000228881836 C 13.810200691223145 -8.833333015441895 13.900200843811035 -8.9399995803833 14.080201148986816 -9.079999923706055 C 14.253534317016602 -9.226666450500488 14.406867980957031 -9.300000190734863 14.540201187133789 -9.300000190734863 L 18.49020004272461 -9.300000190734863 C 18.696866989135742 -7.420000076293945 18.89353370666504 -6.0366668701171875 19.0802001953125 -5.150000095367432 C 19.266868591308594 -4.263333320617676 19.426868438720703 -3.570000171661377 19.56020164489746 -3.070000171661377 C 19.846866607666016 -1.9900000095367432 20.160202026367188 -1.4500000476837158 20.500202178955078 -1.4500000476837158 C 20.593534469604492 -1.4500000476837158 20.686866760253906 -1.4800000190734863 20.780200958251953 -1.5399999618530273 C 20.426868438720703 -0.8466665744781494 19.97020149230957 0.1499999761581421 19.410202026367188 1.4500000476837158 C 19.370201110839844 1.5366666316986084 19.266868591308594 1.649999976158142 19.100200653076172 1.7899999618530273 C 18.940200805664062 1.9299999475479126 18.800201416015625 2 18.680200576782227 2 L 16.04020118713379 2 M 21.360200881958008 -7.810000419616699 L 21.34020233154297 -8.760000228881836 C 21.34020233154297 -8.833333015441895 21.430200576782227 -8.9399995803833 21.610200881958008 -9.079999923706055 C 21.79020118713379 -9.226666450500488 21.94353485107422 -9.300000190734863 22.070201873779297 -9.300000190734863 L 24.730201721191406 -9.300000190734863 C 24.056867599487305 -8.166666984558105 22.936866760253906 -5.96999979019165 21.370201110839844 -2.7100000381469727 C 21.3302001953125 -2.62333345413208 21.230201721191406 -2.513333320617676 21.070201873779297 -2.380000114440918 C 20.910202026367188 -2.246666431427002 20.770200729370117 -2.179999828338623 20.65019989013672 -2.179999828338623 C 21.12353515625 -3.9200000762939453 21.360200881958008 -5.796666622161865 21.360200881958008 -7.810000419616699 Z" transform="matrix(10.253487586975098, 0, 0, 10.253487586975098, 1.1676108837127686, 143.20822143554688)" style="fill: rgb(51, 51, 51); white-space: pre; color: rgb(51, 51, 51);"/></svg>