<?xml version="1.0" encoding="UTF-8"?>
<!DOCTYPE svg  PUBLIC '-//W3C//DTD SVG 1.1 Tiny//EN'  'http://www.w3.org/Graphics/SVG/1.1/DTD/svg11-tiny.dtd'>
<svg baseProfile="tiny" version="1.1" viewBox="0 0 512 512" xml:space="preserve" xmlns="http://www.w3.org/2000/svg">
<g xmlns:cc="http://creativecommons.org/ns#" xmlns:dc="http://purl.org/dc/elements/1.1/" xmlns:inkscape="http://www.inkscape.org/namespaces/inkscape" xmlns:rdf="http://www.w3.org/1999/02/22-rdf-syntax-ns#" xmlns:sodipodi="http://sodipodi.sourceforge.net/DTD/sodipodi-0.dtd" xmlns:svg="http://www.w3.org/2000/svg">
	<path d="m438.75 377.83c0 33.504-27.413 60.917-60.917 60.917h-243.67c-33.504 0-60.917-27.413-60.917-60.917v-243.67c0-33.504 27.412-60.917 60.917-60.917h243.67c33.504 0 60.917 27.412 60.917 60.917l-1e-3 243.67z" fill="#563D7C"/>
		<path d="m172.57 152.68h103.62c19.111 0 34.461 4.36 45.986 13.139s17.319 21.978 17.319 39.715c0 10.75-2.628 19.947-7.884 27.592-5.256 7.644-12.78 13.617-22.574 17.797v0.597c13.139 2.807 23.113 9.018 29.861 18.633 6.748 9.675 10.152 21.738 10.152 36.311 0 8.361-1.493 16.186-4.479 23.411-2.986 7.286-7.645 13.557-14.035 18.812-6.391 5.255-14.512 9.436-24.486 12.542-9.975 3.105-21.799 4.657-35.535 4.657h-97.944v-213.21h1e-3zm37.326 89.284h60.917c8.959 0 16.424-2.508 22.396-7.644 5.973-5.136 8.958-12.422 8.958-21.978 0-10.75-2.688-18.335-8.062-22.694-5.375-4.359-13.14-6.569-23.293-6.569h-60.917v58.885h1e-3zm0 93.466h65.993c11.348 0 20.187-2.926 26.397-8.839 6.271-5.853 9.437-14.214 9.437-24.964 0-10.571-3.106-18.633-9.437-24.366-6.331-5.734-15.05-8.481-26.397-8.481h-65.993v66.65z" fill="#fff"/>
</g>
</svg>
