<?xml version="1.0" encoding="utf-8"?>
<!-- Svg Vector Icons : http://www.onlinewebfonts.com/icon -->
<!DOCTYPE svg PUBLIC "-//W3C//DTD SVG 1.1//EN" "http://www.w3.org/Graphics/SVG/1.1/DTD/svg11.dtd">
<svg version="1.1" xmlns="http://www.w3.org/2000/svg" xmlns:xlink="http://www.w3.org/1999/xlink" x="0px" y="0px" viewBox="0 0 1000 1000" enable-background="new 0 0 1000 1000" xml:space="preserve">
<metadata> Svg Vector Icons : http://www.onlinewebfonts.com/icon </metadata>
<g><path d="M894.4,801c30.6-16.5,51-43.3,83.6-53.7c-87.8,129.5-173.3,231.4-358.3,244.9c-150.6,11-284.4-48.7-376.3-113.5c-23.2-16.4-50.7-33.8-65.7-47.8c-5.1-4.8-1.1-18.8-6-23.9c-22-22.6-68.5-61.3-89.6-95.5c-9.9-16.1-14.9-40.8-23.9-59.7C19.2,569.3-10.9,419,28.4,305.2c10.2-29.6,36-59,53.7-83.6c18.3-25.4,37.7-47,53.7-77.6c-4.1,64.9-30.1,105.5-23.9,191.1C126.9,540.3,263.9,695.8,410.7,783c3.3,2,15.5-2.8,17.9,0c10,11.4,33.8,22.8,71.7,35.8C613.6,857.8,791.7,856.3,894.4,801z"/><path d="M978.1,490.4c-42.8,95.5-129.2,184-298.6,173.2c-226.6-14.4-450-266.2-352.4-495.7c9-21.1,27.8-40,41.8-59.7C382,89.6,394.3,67,416.6,54.4c-97.5,202.4,77.7,412,232.9,477.8C742.9,571.8,919.7,550.7,978.1,490.4z"/><path d="M613.7,72.3c1.9,171.8,210.9,300.8,376.3,215c-48.4,124.9-238.7,128.4-346.4,35.8c-90.1-77.5-109.9-222-23.9-316.5C636.2,31.6,613.5,48.8,613.7,72.3z"/></g>
</svg>