<?xml version="1.0" encoding="UTF-8"?>
<svg preserveAspectRatio="xMidYMid" version="1.1" viewBox="0 0 256 255" xmlns="http://www.w3.org/2000/svg">
<defs>
<linearGradient id="b" x1="12.959%" x2="79.639%" y1="12.039%" y2="78.201%">
<stop stop-color="#387EB8" offset="0"/>
<stop stop-color="#366994" offset="1"/>
</linearGradient>
<linearGradient id="a" x1="19.128%" x2="90.742%" y1="20.579%" y2="88.429%">
<stop stop-color="#FFE052" offset="0"/>
<stop stop-color="#FFC331" offset="1"/>
</linearGradient>
</defs>
<path d="m126.92 0.072276c-64.832 4.6242e-6 -60.784 28.115-60.784 28.115l0.072276 29.127h61.868v8.7453h-86.442s-41.486-4.7049-41.486 60.711c-4.624e-6 65.416 36.21 63.097 36.21 63.097h21.61v-30.356s-1.1649-36.21 35.632-36.21h61.362s34.475 0.5573 34.475-33.319v-56.014c0-4.7e-6 5.2343-33.897-62.518-33.897zm-34.114 19.587c6.1554-4.5e-6 11.13 4.975 11.13 11.13 4e-6 6.1554-4.975 11.13-11.13 11.13-6.1554 4.6e-6 -11.13-4.975-11.13-11.13-4.7e-6 -6.1554 4.975-11.13 11.13-11.13z" fill="url(#b)"/>
<path d="m128.76 254.13c64.832 0 60.784-28.115 60.784-28.115l-0.072275-29.127h-61.868v-8.7453h86.442s41.486 4.7049 41.486-60.711c2.3e-5 -65.416-36.21-63.097-36.21-63.097h-21.61v30.356s1.1649 36.21-35.632 36.21h-61.362s-34.475-0.5573-34.475 33.319v56.014s-5.2343 33.897 62.518 33.897zm34.114-19.587c-6.1554 0-11.13-4.975-11.13-11.13 0-6.1554 4.975-11.13 11.13-11.13 6.1554 0 11.13 4.975 11.13 11.13 2.3e-5 6.1554-4.975 11.13-11.13 11.13z" fill="url(#a)"/>
</svg>
